<svg width="36" height="34" viewBox="0 0 36 34" fill="none" xmlns="http://www.w3.org/2000/svg">
<path d="M18 33.4202C20.4621 33.4202 22.7803 32.982 24.955 32.1057C27.1294 31.2403 29.0394 30.0381 30.6846 28.4993C32.3413 26.9605 33.6413 25.1867 34.5848 23.1777C35.5282 21.1581 36 18.9995 36 16.7021C36 14.4153 35.5282 12.2674 34.5848 10.2585C33.6413 8.23883 32.3413 6.45964 30.6846 4.92087C29.0394 3.38208 27.1237 2.17991 24.9376 1.31437C22.7633 0.438122 20.4449 0 17.9827 0C15.5206 0 13.2023 0.438122 11.0278 1.31437C8.8533 2.17991 6.93767 3.38208 5.28093 4.92087C3.63566 6.45964 2.34133 8.23883 1.39789 10.2585C0.465964 12.2674 0 14.4153 0 16.7021C0 18.9995 0.465964 21.1581 1.39789 23.1777C2.34133 25.1867 3.64142 26.9605 5.29819 28.4993C6.95493 30.0381 8.87056 31.2403 11.0451 32.1057C13.2196 32.982 15.5379 33.4202 18 33.4202ZM16.0844 24.6524C15.7277 24.6524 15.4056 24.5828 15.1179 24.4439C14.8303 24.2944 14.5599 24.07 14.3068 23.7707L10.1477 19.1224C9.98658 18.9194 9.86002 18.7217 9.76797 18.5294C9.68744 18.3263 9.64717 18.118 9.64717 17.9042C9.64717 17.4554 9.814 17.0761 10.1477 16.7662C10.4813 16.4456 10.8898 16.2853 11.373 16.2853C11.6606 16.2853 11.9195 16.3441 12.1496 16.4616C12.3797 16.5685 12.6098 16.7555 12.8399 17.0227L16.0326 20.7414L22.9876 10.4188C23.4018 9.80966 23.9137 9.50512 24.5234 9.50512C24.9838 9.50512 25.3922 9.64404 25.7488 9.92187C26.1169 10.1997 26.3011 10.563 26.3011 11.0118C26.3011 11.2149 26.255 11.4179 26.163 11.6209C26.0825 11.824 25.9789 12.0163 25.8523 12.198L17.7929 23.7707C17.5858 24.0485 17.3327 24.2676 17.0336 24.4281C16.7459 24.5776 16.4295 24.6524 16.0844 24.6524Z" fill="#65D800"/>
</svg>
