<svg width="29" height="29" viewBox="0 0 29 29" fill="none" xmlns="http://www.w3.org/2000/svg">
<path d="M21.1458 7.85425H21.1579M8.45829 2.41675H20.5416C23.8783 2.41675 26.5833 5.12169 26.5833 8.45841V20.5417C26.5833 23.8785 23.8783 26.5834 20.5416 26.5834H8.45829C5.12157 26.5834 2.41663 23.8785 2.41663 20.5417V8.45841C2.41663 5.12169 5.12157 2.41675 8.45829 2.41675ZM19.3333 13.7388C19.4824 14.7445 19.3106 15.7715 18.8424 16.6739C18.3742 17.5763 17.6333 18.308 16.7253 18.7651C15.8172 19.2222 14.7881 19.3813 13.7844 19.2198C12.7807 19.0582 11.8534 18.5843 11.1346 17.8655C10.4157 17.1466 9.9418 16.2194 9.78029 15.2157C9.61878 14.212 9.77787 13.1829 10.2349 12.2748C10.692 11.3667 11.4238 10.6259 12.3261 10.1576C13.2285 9.6894 14.2556 9.51763 15.2612 9.66675C16.287 9.81886 17.2367 10.2968 17.9699 11.0301C18.7032 11.7634 19.1812 12.713 19.3333 13.7388Z" stroke="#232061" stroke-width="2" stroke-linecap="round" stroke-linejoin="round"/>
</svg>
