<svg width="29" height="30" viewBox="0 0 29 30" fill="none" xmlns="http://www.w3.org/2000/svg">
<path d="M19.3333 10C21.2561 10 23.1002 10.7902 24.4598 12.1967C25.8195 13.6032 26.5833 15.5109 26.5833 17.5V26.25H21.75V17.5C21.75 16.837 21.4953 16.2011 21.0421 15.7322C20.5889 15.2634 19.9742 15 19.3333 15C18.6924 15 18.0777 15.2634 17.6245 15.7322C17.1712 16.2011 16.9166 16.837 16.9166 17.5V26.25H12.0833V17.5C12.0833 15.5109 12.8471 13.6032 14.2068 12.1967C15.5664 10.7902 17.4105 10 19.3333 10Z" stroke="#232061" stroke-width="2" stroke-linecap="round" stroke-linejoin="round"/>
<path d="M7.24996 11.25H2.41663V26.25H7.24996V11.25Z" stroke="#232061" stroke-width="2" stroke-linecap="round" stroke-linejoin="round"/>
<path d="M4.83329 7.5C6.16798 7.5 7.24996 6.38071 7.24996 5C7.24996 3.61929 6.16798 2.5 4.83329 2.5C3.4986 2.5 2.41663 3.61929 2.41663 5C2.41663 6.38071 3.4986 7.5 4.83329 7.5Z" stroke="#232061" stroke-width="2" stroke-linecap="round" stroke-linejoin="round"/>
</svg>
